<?xml version="1.0" encoding="utf-8"?>
<svg version="1.1" id="All_glyphs" xmlns="http://www.w3.org/2000/svg" xmlns:xlink="http://www.w3.org/1999/xlink" x="0px" y="0px"
	 width="13.9px" height="13.7px" viewBox="0 0 13.9 13.7" style="enable-background:new 0 0 13.9 13.7;" xml:space="preserve">
<style type="text/css">
	.st0{fill:#666D89;}
</style>
<title>google</title>
<path class="st0" d="M0.7,3.3c-0.1,1,0.4,2,1.2,2.5C2.4,6.1,3,6.3,3.6,6.3h0.2c0,0.6,0.1,1.1,0.5,1.6l0,0c-1,0-4.3,0.2-4.3,2.9
	s3,2.9,3.6,2.9h0.2c0.8,0,1.6-0.2,2.3-0.5c1.2-0.5,1.9-1.7,1.8-3C7.8,9.1,7.2,8.1,6.3,7.4C5.9,7,5.5,6.7,5.5,6.4s0.3-0.5,0.6-0.8
	c0.7-0.6,1-1.6,1-2.5C7.3,2.2,6.8,1.2,6,0.7c0.2-0.1,0.4-0.1,0.6-0.1c0.5-0.1,1.2-0.1,1.2-0.5V0H4.2C4.3-0.1,0.7,0,0.7,3.3z
	 M6.5,10.3c0.1,1.1-0.9,1.9-2.3,2s-2.6-0.5-2.7-1.6c0-0.6,0.2-1.1,0.7-1.5C2.7,8.8,3.3,8.5,4,8.5h0.2C5.3,8.4,6.3,9.2,6.5,10.3z
	 M5.5,2.6c0.4,1.1,0,2.2-1,2.8H4.2c-0.8,0-1.5-0.8-1.8-1.9C2.2,3,2.2,2.4,2.4,1.8c0.2-0.4,0.5-0.8,0.9-1h0.3
	C4.6,0.9,5.2,1.2,5.5,2.6z M11.6,5.3V3h-1.5v2.3H7.8v1.4h2.3V9h1.5V6.7h2.3V5.2L11.6,5.3L11.6,5.3z"/>
</svg>
