<?xml version="1.0" encoding="utf-8"?>
<svg version="1.1" id="All_glyphs" xmlns="http://www.w3.org/2000/svg" xmlns:xlink="http://www.w3.org/1999/xlink" x="0px" y="0px"
	 width="14px" height="13.8px" viewBox="0 0 14 13.8" style="enable-background:new 0 0 14 13.8;" xml:space="preserve">
<style type="text/css">
	.st0{fill:#666D89;}
</style>
<title>linkedin</title>
<path class="st0" d="M3.2,1.5C3.2,2.3,2.5,3,1.7,3c0,0-0.1,0-0.1,0C0.7,3.1,0,2.5,0,1.6c0,0,0-0.1,0-0.1C0,0.7,0.6,0,1.4,0
	c0,0,0.1,0,0.1,0c0.8-0.1,1.5,0.5,1.6,1.3C3.2,1.4,3.2,1.5,3.2,1.5z M0.1,13.8V4.2h3v9.6H0.1z"/>
<path class="st0" d="M4.9,7.2c0-1.2,0-2.2-0.1-3.1h2.6l0.1,1.3h0.1c0.7-1,1.8-1.6,3-1.5c2,0,3.5,1.3,3.5,4.2v5.7H11V8.5
	c0-1.2-0.4-2.1-1.5-2.1C8.8,6.5,8.2,6.9,8,7.5C7.9,7.8,7.9,8,7.9,8.3v5.5h-3L4.9,7.2z"/>
</svg>
