<?xml version="1.0" encoding="utf-8"?>
<svg version="1.1" id="All_glyphs" xmlns="http://www.w3.org/2000/svg" xmlns:xlink="http://www.w3.org/1999/xlink" x="0px" y="0px"
	 width="14px" height="11.4px" viewBox="0 0 14 11.4" style="enable-background:new 0 0 14 11.4;" xml:space="preserve">
<style type="text/css">
	.st0{fill:#666D89;}
</style>
<title>twitter</title>
<path class="st0" d="M14,1.3c-0.5,0.2-1.1,0.4-1.7,0.5c0.6-0.4,1-0.9,1.3-1.6c-0.6,0.3-1.2,0.6-1.8,0.7c-1.1-1.2-2.9-1.3-4.1-0.2
	C7.1,1.2,6.8,2,6.8,2.9l0,0c0,0.2,0,0.4,0.1,0.7C4.6,3.4,2.4,2.3,1,0.5C0.7,1,0.6,1.5,0.6,2c0,1,0.5,1.9,1.3,2.4
	C1.4,4.3,1,4.2,0.6,4l0,0c0,1.4,1,2.5,2.3,2.8C2.6,6.9,2.4,6.9,2.1,6.9c-0.2,0-0.4,0-0.5,0c0.4,1.2,1.4,2,2.7,2
	c-1,0.8-2.3,1.2-3.6,1.2c-0.2,0-0.5,0-0.7,0c3.8,2.4,8.9,1.3,11.3-2.5c0.8-1.3,1.3-2.8,1.3-4.4c0-0.1,0-0.3,0-0.4
	C13.1,2.5,13.6,1.9,14,1.3z"/>
</svg>
