<svg xmlns="http://www.w3.org/2000/svg" width="13" height="8.38" viewBox="0 0 13 8.38"><defs><style>.a{fill:#f0d8d9;}</style></defs><title>mail</title><path class="a" d="M-2525.38,160.32l5.42,2.91a1.35,1.35,0,0,0,.65.14,1.42,1.42,0,0,0,.66-.14l5.41-2.91c.36-.19.69-.79,0-.79h-12.22C-2526.07,159.53-2525.73,160.13-2525.38,160.32Zm12.29,1.44-5.56,2.91a1.25,1.25,0,0,1-.66.15,1.19,1.19,0,0,1-.65-.15c-.25-.12-5.17-2.7-5.57-2.91s-.28,0-.28.16v5.3a.85.85,0,0,0,.72.69h11.57a.84.84,0,0,0,.71-.69v-5.3C-2512.81,161.79-2512.81,161.62-2513.09,161.76Z" transform="translate(2525.81 -159.53)"/></svg>